{
  "accessors": [
    {
      "bufferView": 2,
      "componentType": 5126,
      "count": 152,
      "max": [
        8.0,
        8.000000953674316,
        24.0
      ],
      "min": [
        -7.984212875366211,
        -7.936917304992676,
        -24.0
      ],
      "type": "VEC3"
    },
    {
      "bufferView": 2,
      "byteOffset": 1824,
      "componentType": 5126,
      "count": 152,
      "max": [
        1.0,
        1.0,
        -0.0
      ],
      "min": [
        -0.9980276226997375,
        -0.9921174645423889,
        -0.0
      ],
      "type": "VEC3"
    },
    {
      "bufferView": 1,
      "componentType": 5126,
      "count": 152,
      "max": [
        1.0,
        1.0
      ],
      "min": [
        6.705522537231445e-07,
        0.0
      ],
      "type": "VEC2"
    },
    {
      "bufferView": 0,
      "componentType": 5125,
      "count": 306,
      "type": "SCALAR"
    },
    {
      "bufferView": 2,
      "byteOffset": 3648,
      "componentType": 5126,
      "count": 1890,
      "max": [
        8.0,
        8.000000953674316,
        24.0
      ],
      "min": [
        -8.0,
        -8.0,
        -24.0
      ],
      "type": "VEC3"
    },
    {
      "bufferView": 2,
      "byteOffset": 26328,
      "componentType": 5126,
      "count": 1890,
      "max": [
        1.0,
        1.0,
        -0.0
      ],
      "min": [
        -1.0,
        -1.0,
        -0.0
      ],
      "type": "VEC3"
    },
    {
      "bufferView": 1,
      "byteOffset": 1216,
      "componentType": 5126,
      "count": 1890,
      "max": [
        1.0,
        1.0
      ],
      "min": [
        6.705522537231445e-07,
        0.0
      ],
      "type": "VEC2"
    },
    {
      "bufferView": 0,
      "byteOffset": 1224,
      "componentType": 5125,
      "count": 4896,
      "type": "SCALAR"
    },
    {
      "bufferView": 2,
      "byteOffset": 49008,
      "componentType": 5126,
      "count": 468,
      "max": [
        8.0,
        8.000000953674316,
        24.0
      ],
      "min": [
        -8.0,
        -8.000000953674316,
        -24.0
      ],
      "type": "VEC3"
    },
    {
      "bufferView": 2,
      "byteOffset": 54624,
      "componentType": 5126,
      "count": 468,
      "max": [
        1.0,
        1.0,
        -0.0
      ],
      "min": [
        -1.0,
        -1.0,
        -0.0
      ],
      "type": "VEC3"
    },
    {
      "bufferView": 1,
      "byteOffset": 16336,
      "componentType": 5126,
      "count": 468,
      "max": [
        1.0,
        1.0
      ],
      "min": [
        6.705522537231445e-07,
        0.0
      ],
      "type": "VEC2"
    },
    {
      "bufferView": 0,
      "byteOffset": 20808,
      "componentType": 5125,
      "count": 1224,
      "type": "SCALAR"
    },
    {
      "bufferView": 2,
      "byteOffset": 60240,
      "componentType": 5126,
      "count": 180,
      "max": [
        8.0,
        8.000000953674316,
        24.0
      ],
      "min": [
        -7.984212875366211,
        -8.000000953674316,
        -24.0
      ],
      "type": "VEC3"
    },
    {
      "bufferView": 2,
      "byteOffset": 62400,
      "componentType": 5126,
      "count": 180,
      "max": [
        1.0,
        1.0,
        -0.0
      ],
      "min": [
        -0.9980276226997375,
        -1.0,
        -0.0
      ],
      "type": "VEC3"
    },
    {
      "bufferView": 1,
      "byteOffset": 20080,
      "componentType": 5126,
      "count": 180,
      "max": [
        1.0,
        1.0
      ],
      "min": [
        6.705522537231445e-07,
        0.0
      ],
      "type": "VEC2"
    },
    {
      "bufferView": 0,
      "byteOffset": 25704,
      "componentType": 5125,
      "count": 426,
      "type": "SCALAR"
    },
    {
      "bufferView": 2,
      "byteOffset": 64560,
      "componentType": 5126,
      "count": 202,
      "max": [
        8.0,
        8.000000953674316,
        24.0
      ],
      "min": [
        -8.0,
        -8.000000953674316,
        -24.0
      ],
      "type": "VEC3"
    },
    {
      "bufferView": 2,
      "byteOffset": 66984,
      "componentType": 5126,
      "count": 202,
      "max": [
        1.0,
        1.0,
        -0.0
      ],
      "min": [
        -1.0,
        -1.0,
        -0.0
      ],
      "type": "VEC3"
    },
    {
      "bufferView": 1,
      "byteOffset": 21520,
      "componentType": 5126,
      "count": 202,
      "max": [
        1.0,
        1.0
      ],
      "min": [
        6.705522537231445e-07,
        0.0
      ],
      "type": "VEC2"
    },
    {
      "bufferView": 0,
      "byteOffset": 27408,
      "componentType": 5125,
      "count": 600,
      "type": "SCALAR"
    }
  ],
  "asset": {
    "extras": {
      "author": "4boysandhats (https://sketchfab.com/4boysandhats)",
      "license": "CC-BY-4.0 (http://creativecommons.org/licenses/by/4.0/)",
      "source": "https://sketchfab.com/3d-models/freeabstract-tunnel-2a9d469a60c240cc8d95dce0fa591aa1",
      "title": "(free)Abstract tunnel"
    },
    "generator": "Sketchfab-12.68.0",
    "version": "2.0"
  },
  "bufferViews": [
    {
      "buffer": 0,
      "byteLength": 29808,
      "name": "floatBufferViews",
      "target": 34963
    },
    {
      "buffer": 0,
      "byteLength": 23136,
      "byteOffset": 29808,
      "byteStride": 8,
      "name": "floatBufferViews",
      "target": 34962
    },
    {
      "buffer": 0,
      "byteLength": 69408,
      "byteOffset": 52944,
      "byteStride": 12,
      "name": "floatBufferViews",
      "target": 34962
    }
  ],
  "buffers": [
    {
      "byteLength": 122352,
      "uri": "scene.bin"
    }
  ],
  "materials": [
    {
      "doubleSided": true,
      "emissiveFactor": [
        0.0,
        0.36908900000000033,
        1.0
      ],
      "name": "Material.002",
      "pbrMetallicRoughness": {
        "baseColorFactor": [
          0.10255843060311447,
          0.10255843060311447,
          0.10255843060311447,
          1.0
        ],
        "metallicFactor": 0.07467212666216734,
        "roughnessFactor": 0.6401282308520146
      }
    },
    {
      "doubleSided": true,
      "name": "Material.003",
      "pbrMetallicRoughness": {
        "baseColorFactor": [
          0.8,
          0.8,
          0.8,
          1.0
        ],
        "roughnessFactor": 0.2
      }
    },
    {
      "doubleSided": true,
      "name": "Material.004",
      "pbrMetallicRoughness": {
        "baseColorFactor": [
          0.7999999999999999,
          0.002694839999999998,
          0.005840439999999968,
          1.0
        ],
        "metallicFactor": 0.972727,
        "roughnessFactor": 0.0
      }
    }
  ],
  "meshes": [
    {
      "name": "Object_0",
      "primitives": [
        {
          "attributes": {
            "NORMAL": 1,
            "POSITION": 0,
            "TEXCOORD_0": 2
          },
          "indices": 3,
          "material": 0,
          "mode": 4
        }
      ]
    },
    {
      "name": "Object_1",
      "primitives": [
        {
          "attributes": {
            "NORMAL": 5,
            "POSITION": 4,
            "TEXCOORD_0": 6
          },
          "indices": 7,
          "material": 1,
          "mode": 4
        }
      ]
    },
    {
      "name": "Object_2",
      "primitives": [
        {
          "attributes": {
            "NORMAL": 9,
            "POSITION": 8,
            "TEXCOORD_0": 10
          },
          "indices": 11,
          "material": 2,
          "mode": 4
        }
      ]
    },
    {
      "name": "Object_3",
      "primitives": [
        {
          "attributes": {
            "NORMAL": 13,
            "POSITION": 12,
            "TEXCOORD_0": 14
          },
          "indices": 15,
          "material": 1,
          "mode": 4
        }
      ]
    },
    {
      "name": "Object_4",
      "primitives": [
        {
          "attributes": {
            "NORMAL": 17,
            "POSITION": 16,
            "TEXCOORD_0": 18
          },
          "indices": 19,
          "material": 2,
          "mode": 4
        }
      ]
    }
  ],
  "nodes": [
    {
      "children": [
        1
      ],
      "matrix": [
        0.3410075306892395,
        0.0,
        0.0,
        0.0,
        0.0,
        7.571888242835267e-17,
        -0.3410075306892395,
        0.0,
        0.0,
        0.3410075306892395,
        7.571888242835267e-17,
        0.0,
        0.0,
        0.0,
        0.0,
        1.0
      ],
      "name": "Sketchfab_model"
    },
    {
      "children": [
        2
      ],
      "name": "root"
    },
    {
      "children": [
        3,
        5,
        7,
        9,
        11
      ],
      "matrix": [
        1.0,
        0.0,
        0.0,
        0.0,
        0.0,
        2.220446049250313e-16,
        1.0,
        0.0,
        0.0,
        -1.0,
        2.220446049250313e-16,
        0.0,
        0.0,
        0.0,
        0.0,
        1.0
      ],
      "name": "GLTF_SceneRootNode"
    },
    {
      "children": [
        4
      ],
      "matrix": [
        1.0,
        0.0,
        0.0,
        0.0,
        0.0,
        1.0,
        0.0,
        0.0,
        0.0,
        0.0,
        3.5216755867004395,
        0.0,
        0.0,
        12.350467681884766,
        0.0,
        1.0
      ],
      "name": "Cylinder_0"
    },
    {
      "mesh": 0,
      "name": "Object_4"
    },
    {
      "children": [
        6
      ],
      "matrix": [
        0.839520275592804,
        0.0,
        0.0,
        0.0,
        0.0,
        0.839520275592804,
        0.0,
        0.0,
        0.0,
        0.0,
        2.9998362064361572,
        0.0,
        0.0,
        12.350467681884766,
        0.0,
        1.0
      ],
      "name": "Cylinder.001_1"
    },
    {
      "mesh": 1,
      "name": "Object_6"
    },
    {
      "children": [
        8
      ],
      "matrix": [
        0.683073878288269,
        0.0,
        0.0,
        0.0,
        0.0,
        0.683073878288269,
        0.0,
        0.0,
        0.0,
        0.0,
        3.5683486461639404,
        0.0,
        0.0,
        12.350467681884766,
        0.0,
        1.0
      ],
      "name": "Cylinder.002_2"
    },
    {
      "mesh": 2,
      "name": "Object_8"
    },
    {
      "children": [
        10
      ],
      "matrix": [
        1.1088221073150635,
        0.0,
        0.0,
        0.0,
        0.0,
        1.1088221073150635,
        0.0,
        0.0,
        0.0,
        0.0,
        3.3781216144561768,
        0.0,
        0.0,
        12.350467681884766,
        0.0,
        1.0
      ],
      "name": "Cylinder.003_3"
    },
    {
      "mesh": 3,
      "name": "Object_10"
    },
    {
      "children": [
        12
      ],
      "matrix": [
        1.2027217149734497,
        0.0,
        0.0,
        0.0,
        0.0,
        1.2027217149734497,
        0.0,
        0.0,
        0.0,
        0.0,
        3.401346206665039,
        0.0,
        0.0,
        12.350467681884766,
        0.0,
        1.0
      ],
      "name": "Cylinder.004_4"
    },
    {
      "mesh": 4,
      "name": "Object_12"
    }
  ],
  "scene": 0,
  "scenes": [
    {
      "name": "Sketchfab_Scene",
      "nodes": [
        0
      ]
    }
  ]
}
